<?xml version="1.0" standalone="no"?>
<!DOCTYPE svg PUBLIC "-//W3C//DTD SVG 20010904//EN"
 "http://www.w3.org/TR/2001/REC-SVG-20010904/DTD/svg10.dtd">
<svg version="1.0" xmlns="http://www.w3.org/2000/svg"
 width="180.000000pt" height="180.000000pt" viewBox="0 0 180.000000 180.000000"
 preserveAspectRatio="xMidYMid meet">
<metadata>
Created by potrace 1.14, written by Peter Selinger 2001-2017
</metadata>
<g transform="translate(0.000000,180.000000) scale(0.100000,-0.100000)"
fill="#000000" stroke="none">
<path d="M0 900 l0 -900 900 0 900 0 0 900 0 900 -900 0 -900 0 0 -900z m1781
881 c3 0 5 -398 5 -883 l-1 -883 -882 0 c-608 -1 -883 2 -884 10 -3 19 -5
1750 -3 1755 2 4 1746 5 1765 1z"/>
<path d="M261 1561 c-81 -22 -87 -160 -9 -197 28 -13 39 -13 73 -2 99 32 91
186 -10 201 -17 3 -41 2 -54 -2z m69 -51 c42 -42 8 -130 -43 -114 -32 9 -38
18 -44 57 -3 27 1 41 16 56 26 26 46 26 71 1z"/>
<path d="M580 1563 c-77 -27 -59 -99 29 -123 47 -12 54 -36 14 -46 -20 -5 -30
-2 -44 14 -31 39 -71 23 -43 -17 23 -33 59 -43 105 -31 84 23 69 110 -22 125
-30 5 -39 11 -37 23 4 22 41 27 58 7 15 -19 50 -20 50 -2 0 34 -68 64 -110 50z"/>
<path d="M894 1556 c-50 -22 -70 -86 -44 -143 24 -54 66 -70 128 -49 19 6 52
51 52 71 0 16 -47 2 -55 -17 -9 -21 -22 -24 -64 -19 -10 1 -21 26 -27 61 -5
28 26 70 51 70 8 0 24 -9 35 -20 40 -40 72 -20 37 23 -27 33 -71 42 -113 23z"/>
<path d="M1222 1463 c2 -13 15 -19 46 -21 37 -3 42 -1 42 17 0 18 -6 21 -46
21 -38 0 -45 -3 -42 -17z"/>
<path d="M867 1106 c-41 -105 -43 -116 -24 -116 17 0 32 12 40 33 4 12 17 17
42 17 29 0 37 -5 45 -25 6 -15 17 -25 30 -25 26 0 25 6 -6 87 -37 100 -48 118
-70 121 -18 3 -26 -11 -57 -92z m76 -20 c1 -5 -8 -9 -20 -11 -13 -1 -23 -1
-23 0 0 1 5 17 12 35 11 33 11 34 20 9 5 -13 10 -28 11 -33z"/>
<path d="M1186 1192 c-2 -4 -3 -50 -2 -102 1 -90 2 -95 24 -98 20 -3 22 1 22
36 0 31 4 41 20 45 25 6 52 -14 57 -44 5 -30 18 -43 36 -36 16 6 12 63 -6 85
-7 9 -7 16 1 24 17 17 15 63 -5 79 -17 14 -140 23 -147 11z m117 -45 c6 -17
-3 -32 -25 -40 -27 -10 -48 3 -48 29 0 21 5 24 34 24 19 0 36 -6 39 -13z"/>
<path d="M507 801 c-2 -3 -3 -49 -2 -101 1 -90 2 -95 23 -98 21 -3 22 0 23 65
l0 68 22 -65 c17 -51 26 -65 42 -65 15 0 25 13 40 58 11 31 22 57 25 57 3 0 3
-27 2 -61 -4 -59 -3 -61 20 -57 22 3 23 6 23 102 l0 100 -28 1 c-33 2 -38 -4
-61 -79 l-18 -59 -24 68 c-13 38 -24 69 -24 69 0 5 -61 2 -63 -3z"/>
<path d="M836 802 c-8 -14 -4 -147 5 -164 24 -45 106 -55 144 -17 17 16 20 33
20 102 0 75 -2 82 -20 82 -18 0 -20 -8 -23 -77 -2 -65 -6 -79 -22 -88 -14 -8
-26 -8 -40 0 -16 9 -20 23 -22 87 -3 63 -6 77 -20 79 -10 1 -20 -1 -22 -4z"/>
<path d="M1216 802 c-3 -3 -6 -50 -6 -104 l0 -98 68 0 c73 0 84 4 75 26 -3 9
-21 14 -49 14 l-43 0 -3 82 c-2 67 -6 82 -20 84 -9 1 -19 -1 -22 -4z"/>
<path d="M1530 718 c0 -19 8 -22 50 -18 33 3 40 8 34 24 -3 7 -21 12 -44 12
-32 0 -40 -4 -40 -18z"/>
<path d="M873 421 c-17 -11 -34 -28 -37 -38 -29 -95 17 -165 102 -157 41 3 68
26 82 70 13 39 1 91 -28 117 -29 26 -83 30 -119 8z m87 -41 c36 -36 21 -100
-26 -114 -50 -15 -84 74 -43 115 24 24 44 24 69 -1z"/>
<path d="M217 423 c-7 -14 -1 -183 7 -190 4 -5 39 -8 77 -8 64 -1 69 1 69 21
0 19 -5 21 -55 19 -51 -1 -55 0 -55 22 0 13 6 23 13 24 6 0 28 1 47 2 24 2 36
7 38 20 3 14 -4 17 -45 17 -42 0 -49 3 -50 20 -2 18 4 20 53 20 47 0 54 2 54
20 0 18 -7 20 -74 20 -41 0 -77 -3 -79 -7z"/>
<path d="M529 423 c-5 -33 -2 -193 4 -194 28 -5 32 -1 37 36 4 32 9 40 25 40
36 1 54 -14 57 -48 2 -24 8 -32 23 -32 15 0 20 7 20 29 1 15 -4 39 -11 52 -10
19 -10 25 2 35 20 16 17 46 -6 69 -16 16 -33 20 -85 20 -36 0 -66 -3 -66 -7z
m116 -58 c0 -16 -8 -21 -37 -23 -35 -3 -38 -1 -38 23 0 24 3 26 38 23 29 -2
37 -7 37 -23z"/>
<path d="M1243 250 c-1 -15 4 -20 23 -20 17 0 24 5 24 20 0 14 -7 20 -23 20
-16 0 -23 -6 -24 -20z"/>
</g>
</svg>
